<svg id="Pigz_Gestão_-_Logo" data-name="Pigz Gestão - Logo" xmlns="http://www.w3.org/2000/svg" width="63.992" height="32" viewBox="0 0 63.992 32">
  <path id="Caminho_1192" data-name="Caminho 1192" d="M173.89,221.466a2.657,2.657,0,1,0-2.652-2.662v.005A2.654,2.654,0,0,0,173.89,221.466Z" transform="translate(-118.08 -215.394)" fill="#fa641e"/>
  <path id="Caminho_1193" data-name="Caminho 1193" d="M173.876,272.839a2.657,2.657,0,1,0,2.651,2.663V275.5A2.654,2.654,0,0,0,173.876,272.839Z" transform="translate(-118.066 -247.145)" fill="#fa641e"/>
  <path id="Caminho_1194" data-name="Caminho 1194" d="M173.129,243.081h-4.773a8.134,8.134,0,0,0-1.591.1v-.069a10.453,10.453,0,0,0,1.591-1.625l5.672-7.159a2.923,2.923,0,0,0,.83-2.111v-.45c0-.968-.657-1.487-1.9-1.487h-12.1a2.021,2.021,0,0,0-1.314.39,1.847,1.847,0,0,0-.589,1.512v1.211a1.7,1.7,0,0,0,1.9,1.9h4.358a11.873,11.873,0,0,0,1.556-.069v.069a11.3,11.3,0,0,0-1.556,1.628l-5.707,7.126a2.923,2.923,0,0,0-.83,2.111v.449c0,.968.658,1.487,1.9,1.487H173.13a1.856,1.856,0,0,0,1.5-.579,2.019,2.019,0,0,0,.4-1.323v-1.212A1.7,1.7,0,0,0,173.129,243.081Z" transform="translate(-111.041 -223.306)" fill="#fa641e"/>
  <path id="Caminho_1195" data-name="Caminho 1195" d="M103.326,214.872a2.088,2.088,0,0,0-1.408-.436H99.783a1.884,1.884,0,0,0-1.645.7,2.2,2.2,0,0,0-.346,1.293v.9a1.78,1.78,0,0,0,1.54,1.991,1.807,1.807,0,0,0,.451,0h2.135a2.289,2.289,0,0,0,1.2-.286,1.843,1.843,0,0,0,.788-1.7v-.9A1.958,1.958,0,0,0,103.326,214.872Z" transform="translate(-76.934 -214.429)" fill="#fa641e"/>
  <path id="Caminho_1196" data-name="Caminho 1196" d="M101.874,230.272H99.695a1.7,1.7,0,0,0-1.9,1.9v14.007a2.012,2.012,0,0,0,.4,1.324,1.856,1.856,0,0,0,1.5.578h2.179a1.9,1.9,0,0,0,1.455-.523,1.969,1.969,0,0,0,.447-1.38V232.175a1.964,1.964,0,0,0-.45-1.383A1.9,1.9,0,0,0,101.874,230.272Z" transform="translate(-76.935 -223.295)" fill="#fa641e"/>
  <path id="Caminho_1197" data-name="Caminho 1197" d="M131,229.643H129.37c-1.245,0-1.9.657-1.9,1.487v.07a1.574,1.574,0,0,0,.034.346h-.068s-1.072-2.317-4.876-2.317c-5.569,0-8.162,4.22-8.162,8.75,0,4.565,2.663,8.958,8.127,8.958a4.767,4.767,0,0,0,4.358-2.179h.069s-.035.449-.035.657v.9c0,2.628-1.936,3.424-4.185,3.424a9.775,9.775,0,0,1-3.182-.484,1.651,1.651,0,0,0-2.419,1.106l-.381,1.038a1.664,1.664,0,0,0,1.038,2.455,15.68,15.68,0,0,0,5.291.864c4.531,0,9.823-2.386,9.823-8.888V231.545A1.7,1.7,0,0,0,131,229.643Zm-7.159,12.313c-2.386,0-3.424-1.972-3.424-4.185,0-2.04,1.072-3.563,3.182-3.563,1.8,0,3.459.692,3.459,3.839,0,3.112-1.662,3.909-3.218,3.909Z" transform="translate(-86.242 -222.718)" fill="#fa641e"/>
  <path id="Caminho_1198" data-name="Caminho 1198" d="M62.021,214.561H52.3a1.951,1.951,0,0,0-1.392.459,1.9,1.9,0,0,0-.511,1.443v20.924a2.188,2.188,0,0,0,.274,1.149,1.759,1.759,0,0,0,1.628.754h2.248a2.083,2.083,0,0,0,1.254-.344,1.813,1.813,0,0,0,.649-1.559V232.15l-.127-.019a5.89,5.89,0,0,1-3.71-1.7h0A8.076,8.076,0,0,0,57,231.646H62.02c4.808,0,8.059-3.6,8.059-8.578S66.828,214.561,62.021,214.561Zm-5.6,11.2a2.657,2.657,0,1,1,2.651-2.663v.006a2.654,2.654,0,0,1-2.651,2.657Zm7.633,0a2.657,2.657,0,1,1,2.652-2.662v.005a2.654,2.654,0,0,1-2.651,2.657h0Z" transform="translate(-50.394 -214.5)" fill="#fa641e"/>
</svg>
