<svg id="selo-app-store" xmlns="http://www.w3.org/2000/svg" width="89.748" height="30" viewBox="0 0 89.748 30">
  <g id="Grupo_1239" data-name="Grupo 1239">
    <g id="Grupo_1237" data-name="Grupo 1237">
      <path id="Caminho_2439" data-name="Caminho 2439" d="M82.6,0H6.33c-.229,0-.457.006-.689.01a10,10,0,0,0-1.5.132,5.04,5.04,0,0,0-1.426.47A4.81,4.81,0,0,0,1.5,1.5,4.688,4.688,0,0,0,.614,2.713,4.969,4.969,0,0,0,.145,4.141a9.792,9.792,0,0,0-.134,1.5C0,5.872,0,6.1,0,6.333V23.669c0,.233,0,.458.011.691a9.775,9.775,0,0,0,.134,1.5A4.948,4.948,0,0,0,.614,27.29,4.649,4.649,0,0,0,1.5,28.5a4.712,4.712,0,0,0,1.214.884,5.014,5.014,0,0,0,1.426.473,10.1,10.1,0,0,0,1.5.133C5.872,30,6.1,30,6.33,30H82.6c.269,0,.543,0,.813,0,.228,0,.463,0,.691-.008a9.962,9.962,0,0,0,1.5-.132,5.128,5.128,0,0,0,1.431-.473,4.708,4.708,0,0,0,1.213-.884,4.816,4.816,0,0,0,.886-1.211,4.969,4.969,0,0,0,.464-1.429,10.171,10.171,0,0,0,.139-1.5c0-.233,0-.459,0-.691.006-.273.006-.544.006-.82V7.152c0-.275,0-.547-.006-.819,0-.23,0-.461,0-.691a10.181,10.181,0,0,0-.139-1.5,4.99,4.99,0,0,0-.464-1.427,4.853,4.853,0,0,0-2.1-2.1,5.1,5.1,0,0,0-1.431-.47,9.762,9.762,0,0,0-1.5-.132c-.229,0-.464-.008-.691-.01-.27,0-.544,0-.813,0Z" fill="#a6a6a6"/>
      <path id="Caminho_2440" data-name="Caminho 2440" d="M6.552,29.563c-.229,0-.451,0-.678-.008a9.451,9.451,0,0,1-1.4-.122,4.406,4.406,0,0,1-1.242-.411,4.049,4.049,0,0,1-1.048-.762,4,4,0,0,1-.766-1.048,4.3,4.3,0,0,1-.407-1.243,9.3,9.3,0,0,1-.124-1.406c-.005-.158-.011-.685-.011-.685V6.552s.007-.518.011-.67a9.266,9.266,0,0,1,.124-1.4,4.319,4.319,0,0,1,.408-1.247,4,4,0,0,1,.761-1.048,4.186,4.186,0,0,1,1.052-.767,4.385,4.385,0,0,1,1.24-.408A9.52,9.52,0,0,1,5.876.884L6.552.875H83.629l.685.01a9.223,9.223,0,0,1,1.394.121,4.47,4.47,0,0,1,1.253.411,4.192,4.192,0,0,1,1.811,1.815,4.313,4.313,0,0,1,.4,1.237A9.737,9.737,0,0,1,89.3,5.884c0,.212,0,.441,0,.667.006.281.006.549.006.819v15.7c0,.272,0,.539-.006.806,0,.244,0,.467,0,.7a9.495,9.495,0,0,1-.128,1.39,4.284,4.284,0,0,1-.4,1.252,4.1,4.1,0,0,1-.761,1.04,4.047,4.047,0,0,1-1.05.766,4.379,4.379,0,0,1-1.251.412,9.341,9.341,0,0,1-1.4.122c-.22.005-.449.008-.673.008H6.552Z" transform="translate(-0.218 -0.219)"/>
    </g>
    <g id="_Group_" data-name=" Group " transform="translate(7.479 6.54)">
      <g id="_Group_2" data-name=" Group 2">
        <g id="_Group_3" data-name=" Group 3">
          <path id="_Path_" data-name=" Path " d="M21.07,18.719a3.711,3.711,0,0,1,1.767-3.114,3.8,3.8,0,0,0-2.993-1.619c-1.259-.132-2.48.754-3.122.754s-1.642-.741-2.706-.719a3.986,3.986,0,0,0-3.355,2.045c-1.451,2.512-.368,6.2,1.021,8.233.7.994,1.507,2.1,2.571,2.065,1.04-.044,1.429-.664,2.684-.664s1.609.664,2.693.639c1.117-.019,1.819-1,2.491-2a8.219,8.219,0,0,0,1.138-2.319A3.586,3.586,0,0,1,21.07,18.719Z" transform="translate(-9.972 -10.033)" fill="#fff"/>
          <path id="_Path_2" data-name=" Path 2" d="M21.225,11.338a3.652,3.652,0,0,0,.836-2.618,3.718,3.718,0,0,0-2.406,1.245,3.48,3.48,0,0,0-.858,2.521A3.074,3.074,0,0,0,21.225,11.338Z" transform="translate(-12.176 -8.72)" fill="#fff"/>
        </g>
      </g>
      <g id="Grupo_1238" data-name="Grupo 1238" transform="translate(18.341 6.863)">
        <path id="Caminho_2441" data-name="Caminho 2441" d="M40.333,24.875h-3.55l-.853,2.517h-1.5l3.363-9.313h1.562l3.362,9.313H41.185Zm-3.182-1.162h2.814l-1.387-4.085h-.038Z" transform="translate(-34.427 -17.923)" fill="#fff"/>
        <path id="Caminho_2442" data-name="Caminho 2442" d="M53.028,24.814c0,2.11-1.129,3.466-2.834,3.466a2.3,2.3,0,0,1-2.136-1.188h-.032v3.363H46.631V21.418H47.98v1.129h.025a2.409,2.409,0,0,1,2.162-1.2C51.892,21.348,53.028,22.71,53.028,24.814Zm-1.432,0c0-1.375-.711-2.278-1.795-2.278-1.065,0-1.781.922-1.781,2.278S48.736,27.1,49.8,27.1C50.884,27.1,51.6,26.2,51.6,24.814Z" transform="translate(-37.478 -18.74)" fill="#fff"/>
        <path id="Caminho_2443" data-name="Caminho 2443" d="M62.993,24.814c0,2.11-1.13,3.466-2.834,3.466a2.3,2.3,0,0,1-2.136-1.188H57.99v3.363H56.6V21.418h1.349v1.129h.025a2.409,2.409,0,0,1,2.162-1.2C61.856,21.348,62.993,22.71,62.993,24.814Zm-1.433,0c0-1.375-.71-2.278-1.794-2.278-1.065,0-1.781.922-1.781,2.278S58.7,27.1,59.766,27.1c1.084,0,1.794-.9,1.794-2.285Z" transform="translate(-39.969 -18.74)" fill="#fff"/>
        <path id="Caminho_2444" data-name="Caminho 2444" d="M71.235,24.745c.1.924,1,1.53,2.227,1.53,1.175,0,2.02-.606,2.02-1.439,0-.723-.51-1.156-1.717-1.452l-1.208-.291c-1.71-.413-2.5-1.213-2.5-2.511,0-1.607,1.4-2.711,3.389-2.711,1.968,0,3.317,1.1,3.362,2.711H75.4c-.084-.929-.852-1.49-1.975-1.49s-1.891.568-1.891,1.394c0,.658.49,1.046,1.691,1.342l1.026.252c1.911.452,2.7,1.22,2.7,2.582,0,1.742-1.388,2.833-3.595,2.833-2.065,0-3.46-1.066-3.55-2.75Z" transform="translate(-43.272 -17.871)" fill="#fff"/>
        <path id="Caminho_2445" data-name="Caminho 2445" d="M82.55,19.3v1.607h1.291v1.1H82.55v3.743c0,.582.259.853.826.853a4.464,4.464,0,0,0,.458-.032v1.1a3.88,3.88,0,0,1-.774.064c-1.375,0-1.911-.517-1.911-1.834V22.011h-.987v-1.1h.987V19.3Z" transform="translate(-45.861 -18.228)" fill="#fff"/>
        <path id="Caminho_2446" data-name="Caminho 2446" d="M86.065,24.81c0-2.137,1.258-3.479,3.221-3.479s3.221,1.343,3.221,3.479-1.246,3.479-3.221,3.479S86.065,26.952,86.065,24.81Zm5.021,0c0-1.465-.671-2.331-1.8-2.331s-1.8.872-1.8,2.331.671,2.33,1.8,2.33,1.8-.858,1.8-2.33Z" transform="translate(-47.336 -18.736)" fill="#fff"/>
        <path id="Caminho_2447" data-name="Caminho 2447" d="M96.186,21.418h1.33v1.156h.032a1.619,1.619,0,0,1,1.633-1.226,2.133,2.133,0,0,1,.478.052v1.3a1.964,1.964,0,0,0-.626-.084,1.4,1.4,0,0,0-1.46,1.346,1.485,1.485,0,0,0,.008.216v4.028H96.186Z" transform="translate(-49.867 -18.74)" fill="#fff"/>
        <path id="Caminho_2448" data-name="Caminho 2448" d="M107.342,26.21a2.725,2.725,0,0,1-2.924,2.078c-1.975,0-3.2-1.323-3.2-3.446s1.233-3.512,3.143-3.512c1.879,0,3.06,1.291,3.06,3.35v.478h-4.8v.084a1.769,1.769,0,0,0,1.606,1.918,1.818,1.818,0,0,0,.221.005,1.536,1.536,0,0,0,1.568-.955Zm-4.711-2.026h3.395a1.633,1.633,0,0,0-1.539-1.721q-.063,0-.126,0a1.719,1.719,0,0,0-1.729,1.708Z" transform="translate(-51.125 -18.736)" fill="#fff"/>
      </g>
    </g>
  </g>
  <g id="_Group_4" data-name=" Group 4" transform="translate(26.753 6.19)">
    <g id="Grupo_1240" data-name="Grupo 1240">
      <path id="Caminho_2449" data-name="Caminho 2449" d="M35.671,13.206V8.731h1.8c.841,0,1.346.427,1.346,1.116a.981.981,0,0,1-.785.962v.052a1.057,1.057,0,0,1,1.008,1.076c0,.788-.574,1.269-1.529,1.269Zm.7-2.581h.824c.615,0,.934-.226.934-.651s-.3-.654-.815-.654h-.943Zm1,1.991c.626,0,.958-.254.958-.729s-.344-.713-1-.713h-.964v1.442Z" transform="translate(-35.671 -8.372)" fill="#fff"/>
      <path id="Caminho_2450" data-name="Caminho 2450" d="M41.114,12.595c0-.607.453-.958,1.256-1.008l.915-.052v-.292c0-.356-.236-.558-.691-.558-.372,0-.63.136-.7.375h-.645c.068-.58.614-.952,1.38-.952.847,0,1.324.422,1.324,1.135v2.308h-.642v-.475h-.052a1.137,1.137,0,0,1-1.015.53,1.019,1.019,0,0,1-1.12-.909A.919.919,0,0,1,41.114,12.595Zm2.171-.288v-.283l-.825.052c-.465.031-.676.19-.676.487s.263.481.626.481a.8.8,0,0,0,.872-.712Z" transform="translate(-37.032 -8.717)" fill="#fff"/>
      <path id="Caminho_2451" data-name="Caminho 2451" d="M46.169,8.71a.432.432,0,1,1,.457.406H46.6a.41.41,0,0,1-.431-.389Zm.1,1h.664v3.377h-.664Z" transform="translate(-38.295 -8.253)" fill="#fff"/>
      <path id="Caminho_2452" data-name="Caminho 2452" d="M49.743,12.375,49,13.572h-.732l1.12-1.681-1.13-1.7h.779l.726,1.191h.053l.719-1.191h.741l-1.113,1.668,1.126,1.709h-.766l-.735-1.2Z" transform="translate(-38.819 -8.738)" fill="#fff"/>
      <path id="Caminho_2453" data-name="Caminho 2453" d="M53.088,12.595c0-.607.452-.958,1.256-1.008l.914-.052v-.292c0-.356-.236-.558-.691-.558-.373,0-.63.136-.7.375h-.645c.068-.58.614-.952,1.38-.952.846,0,1.324.422,1.324,1.135v2.308h-.641v-.475h-.053a1.136,1.136,0,0,1-1.014.53,1.02,1.02,0,0,1-1.121-.909C53.09,12.663,53.088,12.629,53.088,12.595Zm2.171-.288v-.283l-.824.052c-.465.031-.677.19-.677.487s.264.481.626.481a.8.8,0,0,0,.872-.712Z" transform="translate(-40.025 -8.717)" fill="#fff"/>
      <path id="Caminho_2454" data-name="Caminho 2454" d="M58.259,10.176H58.9v.517h.05a.916.916,0,0,1,.912-.574,1.409,1.409,0,0,1,.3.028V10.8a1.771,1.771,0,0,0-.372-.04.791.791,0,0,0-.859.717c0,.026,0,.051,0,.076v1.994h-.666Z" transform="translate(-41.318 -8.719)" fill="#fff"/>
      <path id="Caminho_2455" data-name="Caminho 2455" d="M64.218,10.172h.642v.536h.05a1.01,1.01,0,0,1,1.008-.6A1.1,1.1,0,0,1,67.1,11.12a1.146,1.146,0,0,1-.008.243v2.186H66.42V11.53c0-.543-.236-.813-.729-.813a.773.773,0,0,0-.806.856v1.976h-.667Z" transform="translate(-42.808 -8.716)" fill="#fff"/>
      <path id="Caminho_2456" data-name="Caminho 2456" d="M69.161,12.595c0-.607.452-.958,1.255-1.008l.915-.052v-.292c0-.356-.236-.558-.691-.558-.372,0-.63.136-.7.375h-.646c.068-.58.614-.952,1.38-.952.847,0,1.325.422,1.325,1.135v2.308h-.642v-.475H71.3a1.136,1.136,0,0,1-1.014.53,1.02,1.02,0,0,1-1.12-.909A.919.919,0,0,1,69.161,12.595Zm2.171-.288v-.283l-.824.052c-.466.031-.677.19-.677.487s.264.481.626.481a.8.8,0,0,0,.872-.712Z" transform="translate(-44.044 -8.717)" fill="#fff"/>
    </g>
  </g>
</svg>
