<svg xmlns="http://www.w3.org/2000/svg" xmlns:xlink="http://www.w3.org/1999/xlink" width="102.25" height="31" viewBox="0 0 102.25 31">
  <defs>
    <linearGradient id="linear-gradient" x1="0.915" y1="6.614" x2="-0.383" y2="5.945" gradientUnits="objectBoundingBox">
      <stop offset="0" stop-color="#00a0ff"/>
      <stop offset="0.007" stop-color="#00a1ff"/>
      <stop offset="0.26" stop-color="#00beff"/>
      <stop offset="0.512" stop-color="#00d2ff"/>
      <stop offset="0.76" stop-color="#00dfff"/>
      <stop offset="1" stop-color="#00e3ff"/>
    </linearGradient>
    <linearGradient id="linear-gradient-2" x1="1.076" y1="17.098" x2="-1.305" y2="17.098" gradientUnits="objectBoundingBox">
      <stop offset="0" stop-color="#ffe000"/>
      <stop offset="0.409" stop-color="#ffbd00"/>
      <stop offset="0.775" stop-color="orange"/>
      <stop offset="1" stop-color="#ff9c00"/>
    </linearGradient>
    <linearGradient id="linear-gradient-3" x1="0.862" y1="10.863" x2="-0.501" y2="9.093" gradientUnits="objectBoundingBox">
      <stop offset="0" stop-color="#ff3a44"/>
      <stop offset="1" stop-color="#c31162"/>
    </linearGradient>
    <linearGradient id="linear-gradient-4" x1="-0.188" y1="13.583" x2="0.421" y2="12.793" gradientUnits="objectBoundingBox">
      <stop offset="0" stop-color="#32a071"/>
      <stop offset="0.068" stop-color="#2da771"/>
      <stop offset="0.476" stop-color="#15cf74"/>
      <stop offset="0.801" stop-color="#06e775"/>
      <stop offset="1" stop-color="#00f076"/>
    </linearGradient>
  </defs>
  <g id="selo-google-play" transform="translate(-990.5 -410.5)">
    <g id="Grupo_1062" data-name="Grupo 1062" transform="translate(991 411)">
      <rect id="Retângulo_1502" data-name="Retângulo 1502" width="101.25" height="30" rx="5" transform="translate(0 0)" stroke="rgba(0,0,0,0)" stroke-width="1"/>
      <g id="Grupo_1059" data-name="Grupo 1059" transform="translate(0 0)">
        <g id="Grupo_1058" data-name="Grupo 1058">
          <path id="Caminho_1198" data-name="Caminho 1198" d="M107.5,10.6a3.153,3.153,0,0,1,3.15,3.15v22.5a3.153,3.153,0,0,1-3.15,3.15H13.75a3.153,3.153,0,0,1-3.15-3.15V13.75a3.153,3.153,0,0,1,3.15-3.15H107.5m0-.6H13.75A3.761,3.761,0,0,0,10,13.75v22.5A3.761,3.761,0,0,0,13.75,40H107.5a3.761,3.761,0,0,0,3.75-3.75V13.75A3.761,3.761,0,0,0,107.5,10Z" transform="translate(-10 -10)" fill="#a6a6a6" stroke="rgba(0,0,0,0)" stroke-width="1"/>
        </g>
      </g>
      <path id="Caminho_1199" data-name="Caminho 1199" d="M71.362,30.576a3.19,3.19,0,1,0,3.2,3.19A3.144,3.144,0,0,0,71.362,30.576Zm0,5.122a1.938,1.938,0,1,1,1.8-1.933A1.845,1.845,0,0,1,71.362,35.7Zm-6.985-5.122a3.19,3.19,0,1,0,3.2,3.19A3.144,3.144,0,0,0,64.378,30.576Zm0,5.122a1.938,1.938,0,1,1,1.8-1.933A1.845,1.845,0,0,1,64.378,35.7Zm-8.309-4.144v1.353h3.238a2.824,2.824,0,0,1-.736,1.7,3.315,3.315,0,0,1-2.5.991,3.6,3.6,0,0,1,0-7.2,3.45,3.45,0,0,1,2.44.967l.955-.955a4.721,4.721,0,0,0-3.4-1.366,4.955,4.955,0,1,0,0,9.908,4.527,4.527,0,0,0,3.455-1.39A4.471,4.471,0,0,0,60.7,32.4a4.373,4.373,0,0,0-.073-.845Zm33.981,1.051a2.965,2.965,0,0,0-2.731-2.029,3.031,3.031,0,0,0-3.008,3.19,3.121,3.121,0,0,0,3.166,3.19,3.172,3.172,0,0,0,2.658-1.414l-1.087-.725a1.822,1.822,0,0,1-1.57.882,1.624,1.624,0,0,1-1.547-.966l4.265-1.765ZM85.7,33.669a1.75,1.75,0,0,1,1.667-1.861,1.234,1.234,0,0,1,1.184.677Zm-3.467,3.093h1.4V27.385h-1.4Zm-2.3-5.473h-.048a2.211,2.211,0,0,0-1.679-.712,3.193,3.193,0,0,0,0,6.379,2.173,2.173,0,0,0,1.679-.725h.048v.46c0,1.22-.652,1.873-1.7,1.873a1.765,1.765,0,0,1-1.607-1.136l-1.22.508a3.04,3.04,0,0,0,2.827,1.885c1.643,0,3.033-.967,3.033-3.322V30.768h-1.33ZM78.329,35.7a1.94,1.94,0,0,1,0-3.866,1.949,1.949,0,0,1,0,3.866Zm18.286-8.312H93.262v9.376h1.4V33.21h1.955a2.916,2.916,0,1,0,0-5.824Zm.036,4.519H94.66V28.691h1.99a1.607,1.607,0,1,1,0,3.214Zm8.649-1.346a2.629,2.629,0,0,0-2.5,1.435l1.243.519a1.326,1.326,0,0,1,1.279-.688,1.347,1.347,0,0,1,1.472,1.207v.1a3.1,3.1,0,0,0-1.46-.362c-1.339,0-2.7.736-2.7,2.11a2.167,2.167,0,0,0,2.328,2.063,1.975,1.975,0,0,0,1.786-.917h.048v.724h1.351V33.151A2.571,2.571,0,0,0,105.3,30.558Zm-.169,5.138c-.459,0-1.1-.229-1.1-.8,0-.724.8-1,1.483-1a2.5,2.5,0,0,1,1.279.314A1.7,1.7,0,0,1,105.131,35.7Zm7.936-4.933-1.6,4.065h-.048l-1.665-4.065h-1.507l2.5,5.681-1.424,3.16h1.459l3.848-8.842Zm-12.605,6h1.4V27.386h-1.4Z" transform="translate(-20.261 -14.262)" fill="#fff" stroke="rgba(0,0,0,0)" stroke-width="1"/>
      <g id="Grupo_1061" data-name="Grupo 1061" transform="translate(7.48 5.355)">
        <path id="Caminho_1200" data-name="Caminho 1200" d="M20.319,17.52a1.505,1.505,0,0,0-.347,1.054V35.16a1.5,1.5,0,0,0,.347,1.054l.056.054,9.292-9.292v-.219l-9.292-9.292Z" transform="translate(-19.973 -17.222)" stroke="rgba(0,0,0,0)" stroke-width="1" fill="url(#linear-gradient)"/>
        <path id="Caminho_1201" data-name="Caminho 1201" d="M36,32.14l-3.1-3.1v-.219l3.1-3.1.07.041,3.67,2.085a1.139,1.139,0,0,1,0,2.165L36.066,32.1Z" transform="translate(-23.204 -19.286)" stroke="rgba(0,0,0,0)" stroke-width="1" fill="url(#linear-gradient-2)"/>
        <path id="Caminho_1202" data-name="Caminho 1202" d="M32.95,33.169,29.782,30l-9.347,9.347a1.22,1.22,0,0,0,1.559.046L32.95,33.169" transform="translate(-20.089 -20.356)" stroke="rgba(0,0,0,0)" stroke-width="1" fill="url(#linear-gradient-3)"/>
        <path id="Caminho_1203" data-name="Caminho 1203" d="M32.95,23.618,21.994,17.393a1.22,1.22,0,0,0-1.559.046l9.347,9.347Z" transform="translate(-20.089 -17.14)" stroke="rgba(0,0,0,0)" stroke-width="1" fill="url(#linear-gradient-4)"/>
        <g id="Grupo_1060" data-name="Grupo 1060" transform="translate(0 12.744)">
          <path id="Caminho_1204" data-name="Caminho 1204" d="M32.88,34.132,21.994,40.317a1.249,1.249,0,0,1-1.5.008h0l-.056.056h0l.056.055h0a1.249,1.249,0,0,0,1.5-.008L32.95,34.2Z" transform="translate(-20.089 -34.132)" stroke="rgba(0,0,0,0)" stroke-width="1" opacity="0.2" style="mix-blend-mode: normal;isolation: isolate"/>
          <path id="Caminho_1205" data-name="Caminho 1205" d="M20.319,41.967a1.5,1.5,0,0,1-.347-1.054v.11a1.5,1.5,0,0,0,.347,1.053l.056-.055Z" transform="translate(-19.973 -35.827)" stroke="rgba(0,0,0,0)" stroke-width="1" opacity="0.12" style="mix-blend-mode: normal;isolation: isolate"/>
        </g>
        <path id="Caminho_1206" data-name="Caminho 1206" d="M40.768,30.974,37.029,33.1l.07.07,3.67-2.085A1.317,1.317,0,0,0,41.554,30h0A1.4,1.4,0,0,1,40.768,30.974Z" transform="translate(-24.237 -20.356)" stroke="rgba(0,0,0,0)" stroke-width="1" opacity="0.12" style="mix-blend-mode: normal;isolation: isolate"/>
        <path id="Caminho_1207" data-name="Caminho 1207" d="M21.879,17.5,36.5,25.812a1.4,1.4,0,0,1,.786.973h0A1.314,1.314,0,0,0,36.5,25.7l-14.626-8.31c-1.048-.6-1.906-.1-1.906,1.1v.11C19.973,17.4,20.83,16.907,21.879,17.5Z" transform="translate(-19.973 -17.14)" fill="#fff" stroke="rgba(0,0,0,0)" stroke-width="1" opacity="0.25" style="mix-blend-mode: normal;isolation: isolate"/>
      </g>
    </g>
    <g id="Grupo_1063" data-name="Grupo 1063" transform="translate(1022.003 415.093)">
      <path id="Caminho_1208" data-name="Caminho 1208" d="M51.338,21.5V17h1.376a2.238,2.238,0,0,1,1.66.625,2.433,2.433,0,0,1,0,3.249,2.238,2.238,0,0,1-1.66.625Zm.578-.553h.8a1.685,1.685,0,0,0,1.234-.447,1.666,1.666,0,0,0,.456-1.25,1.565,1.565,0,0,0-1.69-1.7h-.8Z" transform="translate(-51.338 -15.844)" fill="#fff" stroke="#fff" stroke-width="0.2"/>
      <path id="Caminho_1209" data-name="Caminho 1209" d="M57.3,21.5V17h.578v4.5Z" transform="translate(-52.828 -15.844)" fill="#fff" stroke="#fff" stroke-width="0.2"/>
      <path id="Caminho_1210" data-name="Caminho 1210" d="M60.61,21.567a1.679,1.679,0,0,1-.958-.32,1.483,1.483,0,0,1-.613-.9l.528-.213a1.2,1.2,0,0,0,.386.625.977.977,0,0,0,.657.254,1.051,1.051,0,0,0,.644-.2.635.635,0,0,0,.267-.538.69.69,0,0,0-.267-.581,2.758,2.758,0,0,0-.845-.38,2.256,2.256,0,0,1-.905-.487,1.018,1.018,0,0,1-.308-.764,1.116,1.116,0,0,1,.384-.841,1.4,1.4,0,0,1,1-.359,1.444,1.444,0,0,1,.93.286,1.327,1.327,0,0,1,.465.625l-.527.22a.785.785,0,0,0-.28-.4.983.983,0,0,0-1.144,0,.565.565,0,0,0-.236.461A.526.526,0,0,0,60,18.49a2.1,2.1,0,0,0,.638.311,5.327,5.327,0,0,1,.557.208,2.538,2.538,0,0,1,.451.267,1.048,1.048,0,0,1,.346.415,1.334,1.334,0,0,1,.117.574,1.241,1.241,0,0,1-.135.585,1.106,1.106,0,0,1-.358.409,1.807,1.807,0,0,1-1.009.307Z" transform="translate(-53.263 -15.81)" fill="#fff" stroke="#fff" stroke-width="0.2"/>
      <path id="Caminho_1211" data-name="Caminho 1211" d="M64.821,21.5h-.578V17h1.534a1.42,1.42,0,0,1,.989.38,1.307,1.307,0,0,1,0,1.917,1.42,1.42,0,0,1-.989.38h-.956Zm0-2.376h.968a.745.745,0,0,0,.584-.245.774.774,0,0,0,0-1.081.744.744,0,0,0-.584-.246h-.968Z" transform="translate(-54.564 -15.844)" fill="#fff" stroke="#fff" stroke-width="0.2"/>
      <path id="Caminho_1212" data-name="Caminho 1212" d="M72.722,20.885a2.337,2.337,0,0,1-3.3,0,2.432,2.432,0,0,1,0-3.337,2.329,2.329,0,0,1,3.3,0,2.424,2.424,0,0,1,0,3.334Zm-2.872-.377a1.731,1.731,0,0,0,2.445,0,1.917,1.917,0,0,0,0-2.583,1.731,1.731,0,0,0-2.445,0,1.919,1.919,0,0,0,0,2.583Z" transform="translate(-55.694 -15.81)" fill="#fff" stroke="#fff" stroke-width="0.2"/>
      <path id="Caminho_1213" data-name="Caminho 1213" d="M76.009,21.5V17h.7L78.9,20.5h.025l-.025-.867V17h.579v4.5h-.6l-2.288-3.67h-.025l.025.868v2.8Z" transform="translate(-57.506 -15.844)" fill="#fff" stroke="#fff" stroke-width="0.2"/>
      <path id="Caminho_1214" data-name="Caminho 1214" d="M82.009,21.114v-4.5h.577v4.5Zm.54-4.852h-.5l.327-.8H83Z" transform="translate(-59.006 -15.458)" fill="#fff" stroke="#fff" stroke-width="0.2"/>
      <path id="Caminho_1215" data-name="Caminho 1215" d="M85.109,21.5,83.525,17h.641L85.4,20.652h.025L86.706,17h.641l-1.634,4.5Z" transform="translate(-59.385 -15.844)" fill="#fff" stroke="#fff" stroke-width="0.2"/>
      <path id="Caminho_1216" data-name="Caminho 1216" d="M92.119,17.553H90.07V18.98h1.848v.54H90.07v1.427h2.049V21.5H89.492V17h2.627Z" transform="translate(-60.877 -15.844)" fill="#fff" stroke="#fff" stroke-width="0.2"/>
      <path id="Caminho_1217" data-name="Caminho 1217" d="M94.2,21.5V17h.578v3.947h1.948V21.5Z" transform="translate(-62.054 -15.844)" fill="#fff" stroke="#fff" stroke-width="0.2"/>
      <path id="Caminho_1218" data-name="Caminho 1218" d="M100.554,21.5V17h.7l2.187,3.5h.025l-.025-.867V17h.579v4.5h-.6l-2.288-3.67h-.025l.025.868v2.8Z" transform="translate(-63.642 -15.844)" fill="#fff" stroke="#fff" stroke-width="0.2"/>
      <path id="Caminho_1219" data-name="Caminho 1219" d="M110.138,20.885a2.337,2.337,0,0,1-3.3,0,2.432,2.432,0,0,1,0-3.337,2.329,2.329,0,0,1,3.3,0,2.424,2.424,0,0,1,0,3.334Zm-2.872-.377a1.731,1.731,0,0,0,2.445,0,1.917,1.917,0,0,0,0-2.583,1.731,1.731,0,0,0-2.445,0,1.919,1.919,0,0,0,0,2.583Z" transform="translate(-65.048 -15.81)" fill="#fff" stroke="#fff" stroke-width="0.2"/>
    </g>
  </g>
</svg>
