<svg xmlns="http://www.w3.org/2000/svg" xmlns:xlink="http://www.w3.org/1999/xlink" width="69.694" height="20" viewBox="0 0 69.694 20">
  <defs>
    <clipPath id="clip-path">
      <rect id="Retângulo_2282" data-name="Retângulo 2282" width="69.694" height="20" fill="none"/>
    </clipPath>
  </defs>
  <g id="logo-orange-horizontal-branco" transform="translate(34.847 10)">
    <g id="logo-orange-horizontal-branco-2" data-name="logo-orange-horizontal-branco" transform="translate(-34.847 -10)" clip-path="url(#clip-path)">
      <path id="Caminho_1345" data-name="Caminho 1345" d="M6.833,81.2H4.428A4.433,4.433,0,0,0,0,85.633v2.406a4.433,4.433,0,0,0,4.428,4.428H6.833a4.433,4.433,0,0,0,4.428-4.428V85.633A4.433,4.433,0,0,0,6.833,81.2m.15,9.461H4.278A2.483,2.483,0,0,1,1.8,88.183V86.972h0V85.483a2.483,2.483,0,0,1,2.478-2.478H6.983a2.483,2.483,0,0,1,2.478,2.478v1.211h0v1.489a2.483,2.483,0,0,1-2.478,2.478" transform="translate(0 -76.689)" fill="#676767"/>
      <path id="Caminho_1346" data-name="Caminho 1346" d="M237.039,81.2h-4.556a4.383,4.383,0,0,0-4.383,4.378v6.889h1.8l.011-7.033a2.456,2.456,0,0,1,2.45-2.45H236.5l.061-.122.667-1.333.161-.322Z" transform="translate(-215.428 -76.689)" fill="#676767"/>
      <path id="Caminho_1347" data-name="Caminho 1347" d="M834.733,86.7h-6.606a4.409,4.409,0,0,0-4.428,4.383v2.378a4.413,4.413,0,0,0,4.428,4.383h2.406a4.444,4.444,0,0,0,2.622-.85v.622a2.472,2.472,0,0,1-2.478,2.456l-4.733.011h-.139l-.061.122-.678,1.356-.161.322h5.622a4.409,4.409,0,0,0,4.428-4.383V86.7ZM825.5,90.939a2.467,2.467,0,0,1,2.478-2.45h5.183v5.128a2.467,2.467,0,0,1-2.478,2.45h-2.706a2.467,2.467,0,0,1-2.478-2.45Z" transform="translate(-777.939 -81.883)" fill="#676767"/>
      <path id="Caminho_1348" data-name="Caminho 1348" d="M602.433,81.2H595.6V92.467h1.8V82.983h5.183a2.467,2.467,0,0,1,2.478,2.45v7.033h1.8V85.578a4.411,4.411,0,0,0-4.428-4.378" transform="translate(-562.511 -76.689)" fill="#676767"/>
      <path id="Caminho_1349" data-name="Caminho 1349" d="M376.125,81.2H372.1l-.061.128-.65,1.333-.156.322h5.006a2.461,2.461,0,0,1,2.278,1.544,4.233,4.233,0,0,0-2.261-.656h-2.672a4.231,4.231,0,1,0,0,8.461h2.678a4.234,4.234,0,0,0,2.439-.772v.906h1.817V85.578a4.389,4.389,0,0,0-4.383-4.378m-4.278,5.167a2.439,2.439,0,0,1,1.733-.717h2.678a2.45,2.45,0,1,1,0,4.894h-2.683a2.45,2.45,0,0,1-1.733-4.178" transform="translate(-348.831 -76.689)" fill="#676767"/>
      <path id="Caminho_1350" data-name="Caminho 1350" d="M1062.967,85.472a4.433,4.433,0,0,0-4.428-4.272h-2.406a4.433,4.433,0,0,0-4.433,4.428v2.406a4.433,4.433,0,0,0,4.433,4.428h4.017l-.011-1.8h-4.156a2.489,2.489,0,0,1-1.922-.917l4.478.017a4.433,4.433,0,0,0,4.428-4.272h0Zm-9.461.006A2.483,2.483,0,0,1,1055.983,83h2.706a2.489,2.489,0,0,1,2.478,2.45v.028a2.489,2.489,0,0,1-2.478,2.444l-5.183-.017Z" transform="translate(-993.272 -76.689)" fill="#676767"/>
      <path id="Caminho_1351" data-name="Caminho 1351" d="M137.767,35.822h-1.306a.261.261,0,0,1-.261-.261v-1.3a.261.261,0,0,1,.261-.261h1.3a.261.261,0,0,1,.261.261v1.3a.261.261,0,0,1-.261.261" transform="translate(-128.633 -32.111)" fill="#676767"/>
      <path id="Caminho_1352" data-name="Caminho 1352" d="M179.044,61.922h-.867a.178.178,0,0,1-.178-.178v-.867a.178.178,0,0,1,.178-.178h.867a.178.178,0,0,1,.178.178v.872a.178.178,0,0,1-.178.178" transform="translate(-168.111 -57.328)" fill="#676767"/>
      <path id="Caminho_1353" data-name="Caminho 1353" d="M179.294,2.744H177.25a.35.35,0,0,1-.35-.35V.35a.35.35,0,0,1,.35-.35h2.044a.35.35,0,0,1,.35.35V2.394a.35.35,0,0,1-.35.35" transform="translate(-167.072 0)" fill="#676767"/>
      <path id="Caminho_1354" data-name="Caminho 1354" d="M1071.3,305.1h.533v2.244c0,.239.078.294.222.294h.078v.467a1.219,1.219,0,0,1-.167.011c-.295,0-.661-.078-.661-.694Z" transform="translate(-1011.784 -288.15)" fill="#676767"/>
      <path id="Caminho_1355" data-name="Caminho 1355" d="M1093.078,320.35h.072v-.028c0-.283-.178-.378-.417-.378a1.542,1.542,0,0,0-.589.206l-.2-.383a1.455,1.455,0,0,1,.844-.267.8.8,0,0,1,.895.856v1.35h-.495v-.178a1.342,1.342,0,0,1,.011-.15h-.011a.7.7,0,0,1-.656.378.679.679,0,0,1-.733-.672c0-.683.928-.733,1.278-.733m-.411.983a.552.552,0,0,0,.483-.567v-.05h-.094c-.272,0-.717.039-.717.339,0,.144.105.278.328.278" transform="translate(-1031.144 -301.75)" fill="#676767"/>
      <path id="Caminho_1356" data-name="Caminho 1356" d="M1132.3,305.1h.539v.928c0,.061,0,.122-.011.183h.011a.755.755,0,0,1,.644-.311c.583,0,.956.461.956,1.128a1.023,1.023,0,0,1-.989,1.128.761.761,0,0,1-.645-.322h-.005a1.231,1.231,0,0,1,.005.15v.122h-.505Zm1.056,2.6c.295,0,.539-.239.539-.667s-.222-.678-.539-.678-.539.206-.539.678c0,.333.178.661.539.661" transform="translate(-1069.395 -288.15)" fill="#676767"/>
      <path id="Caminho_1357" data-name="Caminho 1357" d="M1174.444,320.961a.9.9,0,0,0,.589.239c.15,0,.283-.067.283-.194,0-.322-1.05-.278-1.05-.972,0-.4.361-.633.822-.633a1.109,1.109,0,0,1,.722.244l-.2.394a.816.816,0,0,0-.528-.183c-.139,0-.272.061-.272.194,0,.306,1.05.267,1.05.961,0,.361-.311.644-.822.644a1.205,1.205,0,0,1-.839-.317Z" transform="translate(-1108.967 -301.656)" fill="#676767"/>
    </g>
  </g>
</svg>
