<svg id="pigz-logotipo-colorido" xmlns="http://www.w3.org/2000/svg" width="80" height="40" viewBox="0 0 80 40">
  <path id="Caminho_1" data-name="Caminho 1" d="M402.062,12.272a3.322,3.322,0,1,0-3.315-3.322A3.318,3.318,0,0,0,402.062,12.272Z" transform="translate(-332.289 -4.69)" fill="#676767"/>
  <path id="Caminho_2" data-name="Caminho 2" d="M402.062,192.693a3.322,3.322,0,1,0,3.315,3.322A3.319,3.319,0,0,0,402.062,192.693Z" transform="translate(-332.289 -160.577)" fill="#676767"/>
  <path id="Caminho_3" data-name="Caminho 3" d="M375.352,68.282h-5.968a10.206,10.206,0,0,0-1.989.13v-.086a13.061,13.061,0,0,0,1.989-2.032l7.092-8.951a3.653,3.653,0,0,0,1.038-2.638v-.562c0-1.211-.822-1.86-2.379-1.86H360a2.532,2.532,0,0,0-1.643.487,2.311,2.311,0,0,0-.736,1.891v1.514A2.126,2.126,0,0,0,360,58.553h5.449a14.8,14.8,0,0,0,1.946-.086v.086a14.158,14.158,0,0,0-1.946,2.033l-7.135,8.908a3.652,3.652,0,0,0-1.038,2.638v.562c0,1.211.822,1.86,2.379,1.86h15.7a2.318,2.318,0,0,0,1.881-.724,2.521,2.521,0,0,0,.5-1.654V70.661A2.126,2.126,0,0,0,375.352,68.282Z" transform="translate(-297.73 -43.568)" fill="#676767"/>
  <path id="Caminho_4" data-name="Caminho 4" d="M163.353.545A2.611,2.611,0,0,0,161.593,0h-2.669a2.357,2.357,0,0,0-2.057.873,2.748,2.748,0,0,0-.432,1.617V3.62a2.525,2.525,0,0,0,.634,1.856,2.525,2.525,0,0,0,1.856.634h2.669a2.861,2.861,0,0,0,1.5-.358,2.3,2.3,0,0,0,.985-2.131V2.49A2.448,2.448,0,0,0,163.353.545Z" transform="translate(-130.362)" fill="#676767"/>
  <path id="Caminho_5" data-name="Caminho 5" d="M161.537,52.281h-2.724a2.126,2.126,0,0,0-2.379,2.379V72.173a2.52,2.52,0,0,0,.5,1.656,2.321,2.321,0,0,0,1.88.723h2.724a2.371,2.371,0,0,0,1.82-.654,2.457,2.457,0,0,0,.559-1.725V54.66a2.453,2.453,0,0,0-.562-1.728A2.373,2.373,0,0,0,161.537,52.281Z" transform="translate(-130.362 -43.567)" fill="#676767"/>
  <path id="Caminho_6" data-name="Caminho 6" d="M231.913,49.3h-2.033c-1.557,0-2.378.822-2.378,1.86v.087a1.975,1.975,0,0,0,.043.432h-.086s-1.341-2.9-6.1-2.9c-6.962,0-10.205,5.276-10.205,10.94,0,5.708,3.329,11.2,10.161,11.2a5.963,5.963,0,0,0,5.449-2.724h.087s-.044.562-.044.821v1.125c0,3.286-2.421,4.281-5.233,4.281a12.225,12.225,0,0,1-3.978-.6c-1.6-.519-2.465-.088-3.027,1.383l-.475,1.3c-.562,1.514-.173,2.465,1.3,3.07a19.607,19.607,0,0,0,6.616,1.081c5.665,0,12.281-2.983,12.281-11.113V51.677A2.126,2.126,0,0,0,231.913,49.3Zm-8.951,15.4c-2.984,0-4.281-2.465-4.281-5.233,0-2.551,1.34-4.454,3.978-4.454,2.249,0,4.325.865,4.325,4.8C226.984,63.7,224.908,64.693,222.962,64.693Z" transform="translate(-175.964 -40.649)" fill="#676767"/>
  <path id="Caminho_7" data-name="Caminho 7" d="M14.531.391H2.379A2.44,2.44,0,0,0,.638.965,2.384,2.384,0,0,0,0,2.77V28.931a2.734,2.734,0,0,0,.342,1.437,2.2,2.2,0,0,0,2.036.942H5.189a2.6,2.6,0,0,0,1.567-.43,2.266,2.266,0,0,0,.811-1.949V22.384l-.159-.024a7.362,7.362,0,0,1-4.638-2.13h0a10.1,10.1,0,0,0,5.49,1.525h6.269c6.011,0,10.076-4.5,10.076-10.724S20.541.391,14.531.391Zm-7,14a3.322,3.322,0,1,1,3.315-3.322A3.318,3.318,0,0,1,7.531,14.394Zm9.544,0a3.322,3.322,0,1,1,3.315-3.322A3.318,3.318,0,0,1,17.075,14.394Z" transform="translate(0 -0.326)" fill="#676767"/>
</svg>
