<svg id="print_black_24dp" xmlns="http://www.w3.org/2000/svg" xmlns:xlink="http://www.w3.org/1999/xlink" width="72" height="72" viewBox="0 0 72 72">
  <defs>
    <linearGradient id="linear-gradient" x1="0.5" x2="0.5" y2="1" gradientUnits="objectBoundingBox">
      <stop offset="0" stop-color="#fa641e"/>
      <stop offset="1" stop-color="#ff881f"/>
    </linearGradient>
  </defs>
  <path id="Caminho_9997" data-name="Caminho 9997" d="M0,0H72V72H0Z" fill="none"/>
  <path id="Caminho_9998" data-name="Caminho 9998" d="M8,5H32v9H8Z" transform="translate(16 10)" opacity="0.3" fill="url(#linear-gradient)"/>
  <circle id="Elipse_726" data-name="Elipse 726" cx="3" cy="3" r="3" transform="translate(51 31.5)" fill="url(#linear-gradient)"/>
  <path id="Caminho_9999" data-name="Caminho 9999" d="M53,18H50V3H14V18H11a8.988,8.988,0,0,0-9,9V45H14V57H50V45H62V27A8.988,8.988,0,0,0,53,18ZM20,9H44v9H20ZM44,51H20V39H44ZM56,39H50V33H14v6H8V27a3.009,3.009,0,0,1,3-3H53a3.009,3.009,0,0,1,3,3Z" transform="translate(4 6)" fill="url(#linear-gradient)"/>
  <path id="Caminho_10000" data-name="Caminho 10000" d="M10,19H46v6h6V13a3.009,3.009,0,0,0-3-3H7a3.009,3.009,0,0,0-3,3V25h6Zm36-7.5a3,3,0,1,1-3,3A3.009,3.009,0,0,1,46,11.5Z" transform="translate(8 20)" opacity="0.3" fill="url(#linear-gradient)"/>
</svg>
